<svg xmlns="http://www.w3.org/2000/svg" viewBox="0 0 640 420" role="img" aria-label="Unfurling fern">
  <rect width="640" height="420" rx="36" fill="#edf6ec"/>
  <path d="M162 390c48-48 72-117 80-195 10-99 73-145 151-125 66 17 93 95 50 150-34 44-99 45-125 7-18-27-5-68 27-73 23-3 40 11 39 31" fill="none" stroke="#2c8056" stroke-width="27" stroke-linecap="round"/>
  <path d="M235 249c-53-3-90-26-109-56m116 24c-56-31-71-66-67-99m81 75c-20-48-17-83 2-111m39 54c2-39 24-67 59-85" fill="none" stroke="#58aa6b" stroke-width="15" stroke-linecap="round"/>
  <g fill="#7dc98a"><ellipse cx="135" cy="192" rx="45" ry="18" transform="rotate(22 135 192)"/><ellipse cx="172" cy="116" rx="41" ry="17" transform="rotate(72 172 116)"/><ellipse cx="257" cy="82" rx="42" ry="17" transform="rotate(-57 257 82)"/><ellipse cx="356" cy="53" rx="37" ry="16" transform="rotate(-27 356 53)"/></g>
  <circle cx="513" cy="308" r="49" fill="#ffdf8a" opacity=".75"/>
</svg>
